<svg width="401" height="400" viewBox="0 0 401 400" fill="none" xmlns="http://www.w3.org/2000/svg">
<path d="M131.728 1.0581C124.843 2.92854 117.435 6.22052 116.312 7.86651C115.339 9.43768 115.414 10.2607 116.761 15.6475C118.557 22.3811 124.619 39.8137 129.857 53.0564C131.728 57.7699 133.3 61.8849 133.3 62.259C133.3 62.5582 129.259 60.7626 124.319 58.2936C114.666 53.4305 113.394 53.2808 109.203 56.1987C106.659 57.9195 103.366 64.5783 103.366 67.9451C103.366 72.8831 110.625 78.1203 132.701 89.0437L143.701 94.5054L147.443 102.81C153.954 117.474 173.261 167.902 172.812 169.099C172.662 169.398 168.397 167.677 163.233 165.283C156.722 162.215 153.43 160.27 152.532 158.774C149.164 153.686 144.824 143.361 136.592 120.542C134.871 115.903 133.3 115.529 124.918 117.774C116.237 120.018 114.965 121.215 115.639 126.976C115.863 129.146 117.135 134.009 118.333 137.75C119.53 141.566 120.428 144.783 120.204 144.933C119.605 145.531 93.3384 132.887 92.0662 131.391C89.7463 128.622 83.9093 116.053 79.3445 104.307C74.4803 91.5875 73.5823 90.5401 69.1671 91.9616C65.0512 93.3083 58.3162 96.8247 56.4454 98.6204C54.2003 100.715 54.2752 101.613 56.9692 109.544C58.1665 113.21 59.0645 116.277 58.9897 116.427C58.84 116.577 50.3838 112.761 40.2813 108.047C29.9542 103.259 20.8994 99.4434 19.6272 99.4434C16.559 99.4434 13.3412 103.334 9.00082 112.536C4.58563 121.589 4.36113 124.058 7.80348 126.602C11.2458 129.221 21.5729 134.308 37.1383 140.967C44.5468 144.184 50.9077 147.027 51.207 147.327C51.5812 147.626 47.6898 149.646 42.6011 151.816C37.5124 153.911 32.9476 156.23 32.4238 156.903C31.8251 157.726 31.6006 159.148 31.8251 160.794C32.3489 164.161 35.7913 172.765 37.2879 174.411C39.533 176.88 39.0839 177.029 77.3239 163.637L81.5895 162.215L88.3993 164.909C92.141 166.405 97.9032 168.874 101.346 170.445L107.482 173.288L100.971 175.309C97.3794 176.356 93.937 177.777 93.3384 178.451C91.8417 179.947 91.8417 184.062 93.2635 188.851C93.937 190.871 94.7602 193.788 95.1344 195.285C96.631 200.896 99.6992 200.597 123.721 192.442L138.388 187.504L148.64 192.367C154.178 195.135 158.518 197.529 158.219 197.679C155.675 199.25 102.318 219.376 84.2835 225.586L78.222 227.681L68.9426 222.369C53.1527 213.466 44.472 209.351 42.4515 209.874C41.2541 210.174 39.3084 212.268 36.8389 216.084C33.5463 221.097 33.0224 222.369 33.0224 225.661C33.0224 230.225 33.5463 230.748 42.3766 234.863C47.9892 237.482 48.8872 238.081 47.615 238.679C46.7918 238.978 41.1045 241.148 35.0429 243.467C28.9066 245.787 19.0285 249.752 12.967 252.371C-0.203725 257.907 -0.652727 258.431 1.14328 265.763C2.78962 272.048 7.95314 282.447 10.273 284.019C12.1438 285.216 12.8173 284.991 36.5396 276.088C49.86 271 61.0102 267.11 61.2347 267.259C61.4592 267.484 59.738 271 57.4182 275.115C55.0984 279.23 53.2275 283.27 53.2275 284.168C53.2275 287.61 63.8539 295.466 68.5684 295.466C72.6843 295.466 77.2491 289.106 87.3517 269.13C90.9437 262.022 94.386 256.112 95.3589 255.513C100.971 251.847 168.546 226.484 169.669 227.606C170.417 228.354 163.757 244.216 161.811 246.31C159.192 249.228 143.926 256.71 128.136 262.92C117.884 266.96 115.04 268.457 114.367 269.803C113.693 271.374 114.067 272.721 117.435 279.38C120.428 285.44 121.7 287.311 123.122 287.685C125.367 288.208 131.129 286.637 139.286 283.121C142.654 281.774 145.198 281.026 145.048 281.475C142.13 288.433 132.776 307.287 131.878 308.035C128.51 310.654 117.36 315.592 105.836 319.407C98.7264 321.727 92.4403 324.046 91.8417 324.645C90.2702 325.917 90.345 328.76 92.2907 336.391C94.3112 344.696 95.5085 345.968 100.672 345.294C102.767 344.995 107.332 343.798 110.849 342.601C114.367 341.479 117.285 340.581 117.435 340.656C117.659 340.955 111.897 353.824 105.686 366.917C99.6992 379.336 99.1754 381.731 101.944 383.825C105.536 386.519 119.68 393.477 121.7 393.477C124.768 393.477 127.687 391.008 131.429 384.948C134.796 379.486 140.858 366.617 144.899 356.218C146.321 352.701 147.219 351.13 147.593 351.729C147.967 352.252 149.314 355.694 150.586 359.435C153.729 368.338 154.403 369.086 158.818 368.563C164.056 367.889 171.989 364.074 173.111 361.679C174.308 359.061 172.438 351.729 166.975 336.99C160.689 320.156 160.763 322.999 166.601 309.232C169.369 302.723 171.914 297.037 172.213 296.738C172.512 296.364 173.71 298.758 174.757 302.05C175.88 305.342 177.302 308.484 177.9 309.008C179.472 310.28 186.955 309.457 191.37 307.511C196.16 305.342 198.405 303.172 198.405 300.628C198.405 297.71 195.262 287.909 190.697 276.761C188.602 271.599 186.955 267.035 186.955 266.661C186.955 266.212 189.051 261.05 191.67 255.064C194.214 249.079 196.833 243.019 197.432 241.597C198.255 239.652 198.704 239.352 199.153 240.101C199.527 240.699 204.541 254.69 210.378 271.15L221.005 301.077L211.201 320.53C205.813 331.303 201.398 340.73 201.398 341.553C201.398 343.648 201.997 344.247 207.759 348.063C212.099 350.98 213.596 351.579 216.44 351.579C221.154 351.579 223.474 349.11 228.488 338.935L232.304 331.154L233.651 334.82C234.4 336.84 238.067 346.865 241.883 357.19C256.551 397.293 258.272 400.959 262.238 399.836C267.177 398.34 283.865 391.606 284.613 390.709C285.062 390.185 285.362 388.763 285.362 387.641C285.287 386.519 280.348 372.304 274.436 356.068C268.524 339.833 263.735 326.365 263.884 326.216C264.034 326.066 266.354 327.188 269.048 328.685C274.735 331.902 276.83 332.052 279.525 329.508C282.293 326.889 287.532 315.741 287.008 313.646C286.484 311.776 271.143 302.499 259.319 296.812C251.986 293.296 252.061 293.371 245.475 276.986C241.734 267.708 227.59 229.925 227.59 229.327C227.59 229.177 231.556 230.674 236.42 232.768C241.21 234.789 246.897 237.183 249.067 237.931C251.986 239.053 253.557 240.325 255.503 242.944C259.17 247.882 264.857 259.703 269.572 271.823C274.136 283.719 274.436 284.019 281.171 282.223C289.477 280.128 293.444 277.061 293.444 273.02C293.444 271.898 292.471 268.082 291.199 264.416C290.001 260.75 288.954 257.683 288.954 257.608C288.954 257.533 294.791 260.002 301.975 263.144L315.07 268.756L319.111 277.435C321.357 282.223 325.173 290.827 327.568 296.588C332.881 309.606 333.18 309.98 337.595 309.382C341.412 308.858 350.616 303.696 351.889 301.376C352.936 299.356 352.263 294.792 350.018 289.256L348.222 284.916L349.793 285.44C350.691 285.739 357.651 288.882 365.284 292.548C378.38 298.833 379.278 299.132 381.897 298.458C386.387 297.187 389.904 292.024 392.897 282.447C394.918 275.863 394.918 274.367 392.523 272.048C390.278 269.803 379.727 264.491 365.359 258.506C359.896 256.186 354.882 254.017 354.283 253.643C353.46 253.194 355.855 251.997 362.365 249.378C373.965 244.889 374.563 244.44 374.039 240.25C373.665 236.883 370.148 228.953 367.454 225.586C365.434 223.042 363.638 223.117 356.828 226.259C346.95 230.674 326.745 238.604 325.023 238.604C323.153 238.604 296.437 227.382 296.437 226.633C296.437 226.334 297.335 225.81 298.532 225.511C299.655 225.287 303.621 223.566 307.437 221.77C312.975 219.152 314.397 218.179 314.846 216.608C315.669 213.166 312.526 203.964 309.308 200.223C306.988 197.604 300.777 199.175 279.45 207.929L268.075 212.568L257.748 208.453C245.326 203.44 240.087 201.121 240.461 200.821C240.611 200.672 250.788 197.006 263.061 192.591C275.409 188.177 291.199 182.416 298.233 179.723C305.267 177.104 312.9 174.186 315.295 173.288L319.486 171.717L340.963 182.341C352.712 188.177 363.189 192.965 364.087 192.965C366.182 192.965 367.23 191.768 371.196 184.96C374.788 178.75 375.162 175.309 372.618 172.989C371.645 172.166 367.529 169.548 363.413 167.153C351.065 159.971 351.365 160.195 352.562 159.746C353.161 159.522 358.773 157.502 364.91 155.257C385.564 147.85 396.265 143.287 399.184 140.743C400.98 139.172 400.755 136.403 398.51 129.969C395.442 121.365 392.374 115.903 390.353 115.155C387.584 114.108 375.686 117.849 348.596 128.323C347.399 128.772 347.473 128.323 349.195 124.881C351.664 120.018 351.29 117.175 347.848 113.808C345.303 111.414 339.691 108.496 337.371 108.421C332.582 108.347 326.745 116.128 320.608 130.642L317.016 139.172L303.92 144.259C290.151 149.721 230.808 172.017 230.209 172.017C229.61 172.017 232.005 166.555 233.202 165.283C233.801 164.61 234.325 163.263 234.325 162.215C234.4 153.611 246.373 144.933 267.476 138.274C272.939 136.478 277.803 134.757 278.402 134.308C280.123 132.962 279.076 124.058 276.456 119.046C273.164 112.611 271.742 112.162 262.911 115.08C259.02 116.352 255.727 117.325 255.578 117.175C254.979 116.577 264.558 95.3284 266.054 94.0565C268.823 91.6623 286.634 83.2827 298.308 78.8685C304.519 76.5492 310.206 74.0053 311.029 73.1824C312.302 71.9105 312.376 71.4615 311.553 67.4962C309.682 58.5181 308.186 55.0765 305.791 54.3283C302.873 53.3557 296.437 54.7024 288.28 57.9944C284.763 59.4159 281.844 60.5382 281.695 60.5382C281.395 60.5382 282.668 57.6951 291.348 39.2151C295.763 29.7881 299.43 21.1841 299.43 20.1366C299.43 15.6475 294.267 10.8592 284.838 6.59461C282.144 5.39752 279.225 4.42489 278.252 4.42489C274.211 4.42489 269.422 11.757 260.367 31.883C257.074 39.2151 254.306 45.3502 254.081 45.4998C253.931 45.6494 252.36 42.5819 250.489 38.6166C246.224 29.3392 245.924 29.2644 235.971 34.2772C230.059 37.195 228.263 38.5418 227.889 39.9633C227.365 42.2078 228.712 46.4724 234.849 61.0619C237.393 67.3466 239.563 73.332 239.563 74.3794C239.563 77.5218 235.373 87.9214 229.76 98.6204C226.842 104.232 224.222 109.02 223.923 109.319C223.699 109.619 222.277 106.177 220.93 101.613C217.562 90.8393 217.113 90.4652 208.657 92.2609C195.86 95.0291 195.112 96.0018 197.956 106.252C199.003 110.142 201.922 118.821 204.466 125.63C206.936 132.438 209.181 138.723 209.405 139.695C209.78 141.266 203.419 157.352 202.146 158.175C201.847 158.4 199.827 153.537 197.656 147.476C195.486 141.416 188.751 122.936 182.54 106.401L171.39 76.3995L179.696 59.6404L188.078 42.8812L186.955 40.2626C185.533 36.7461 181.867 34.5764 174.982 33.0801C167.723 31.5089 166.675 32.1074 163.233 39.9633C161.886 43.1056 160.539 45.3502 160.24 45.0509C159.94 44.7516 158.593 41.2352 157.246 37.3447C153.28 25.9724 144.525 3.45226 143.327 1.58182C142.429 0.235102 141.606 -0.0641689 138.688 0.0106488C136.742 0.0106488 133.599 0.534373 131.728 1.0581Z" fill="black"/>
</svg>
